<mxfile host="65bd71144e">
    <diagram name="Page-1" id="KmphRievRsaeJTi5RZ_Y">
        <mxGraphModel dx="4553" dy="5385" grid="1" gridSize="10" guides="1" tooltips="1" connect="1" arrows="1" fold="1" page="1" pageScale="1" pageWidth="3300" pageHeight="4681" math="0" shadow="0">
            <root>
                <mxCell id="0"/>
                <mxCell id="1" parent="0"/>
                <mxCell id="TugAADP1gNIejF-wy_t--1" value="user" style="html=1;overflow=block;blockSpacing=1;swimlane;childLayout=stackLayout;horizontal=1;horizontalStack=0;resizeParent=1;resizeParentMax=0;resizeLast=0;collapsible=0;fontStyle=0;marginBottom=0;swimlaneFillColor=#e3fae3;startSize=25;whiteSpace=wrap;fontSize=16.7;align=left;spacing=0;strokeColor=#ff80df;strokeOpacity=100;fillOpacity=100;rounded=1;absoluteArcSize=1;arcSize=9;fillColor=#e3fae3;strokeWidth=1.5;" parent="1" vertex="1">
                    <mxGeometry x="-705" y="-990" width="270" height="266.25" as="geometry"/>
                </mxCell>
                <mxCell id="TugAADP1gNIejF-wy_t--2" value="&lt;div style=&quot;display: flex; justify-content: null; text-align: null; align-items: baseline; font-size: 0; line-height: 1.25;margin-top: -2px;&quot;&gt;&lt;span&gt;&lt;span style=&quot;font-size:16.7px;&quot;&gt;+ id: int&#xa;&lt;/span&gt;&lt;/span&gt;&lt;/div&gt;&lt;div style=&quot;display: flex; justify-content: null; text-align: null; align-items: baseline; font-size: 0; line-height: 1.25;margin-top: -2px;&quot;&gt;&lt;span&gt;&lt;span style=&quot;font-size:16.7px;&quot;&gt;# name: string&#xa;&lt;/span&gt;&lt;/span&gt;&lt;/div&gt;&lt;div style=&quot;display: flex; justify-content: null; text-align: null; align-items: baseline; font-size: 0; line-height: 1.25;margin-top: -2px;&quot;&gt;&lt;span&gt;&lt;span style=&quot;font-size:16.7px;&quot;&gt;- email: string&#xa;&lt;/span&gt;&lt;/span&gt;&lt;/div&gt;&lt;div style=&quot;display: flex; justify-content: null; text-align: null; align-items: baseline; font-size: 0; line-height: 1.25;margin-top: -2px;&quot;&gt;&lt;span&gt;&lt;span style=&quot;font-size:16.7px;&quot;&gt;- password: string&lt;/span&gt;&lt;/span&gt;&lt;/div&gt;" style="part=1;html=1;resizeHeight=0;strokeColor=none;fillColor=none;align=left;verticalAlign=middle;spacingLeft=4;spacingRight=4;overflow=hidden;rotatable=0;points=[[0,0.5],[1,0.5]];portConstraint=eastwest;swimlaneFillColor=#e3fae3;strokeOpacity=100;fillOpacity=100;whiteSpace=wrap;fontSize=16.7;" parent="TugAADP1gNIejF-wy_t--1" vertex="1">
                    <mxGeometry y="25" width="270" height="112" as="geometry"/>
                </mxCell>
                <mxCell id="TugAADP1gNIejF-wy_t--3" value="" style="line;strokeWidth=1;fillColor=none;align=left;verticalAlign=middle;spacingTop=-1;spacingLeft=3;spacingRight=3;rotatable=0;labelPosition=right;points=[];portConstraint=eastwest;" parent="TugAADP1gNIejF-wy_t--1" vertex="1">
                    <mxGeometry y="137" width="270" height="8" as="geometry"/>
                </mxCell>
                <mxCell id="TugAADP1gNIejF-wy_t--4" value="# register()&#xa;# connexion()&#xa;# deconnexion()" style="part=1;resizeHeight=0;strokeColor=none;fillColor=none;align=left;verticalAlign=middle;spacingLeft=4;spacingRight=4;rotatable=0;points=[[0,0.5],[1,0.5]];portConstraint=eastwest;swimlaneFillColor=#e3fae3;strokeOpacity=100;fillOpacity=100;whiteSpace=wrap;overflow=block;blockSpacing=1;html=1;fontSize=13;" parent="TugAADP1gNIejF-wy_t--1" vertex="1">
                    <mxGeometry y="145" width="270" height="121.25" as="geometry"/>
                </mxCell>
                <mxCell id="TugAADP1gNIejF-wy_t--5" value="&amp;nbsp; role" style="html=1;overflow=block;blockSpacing=1;swimlane;childLayout=stackLayout;horizontal=1;horizontalStack=0;resizeParent=1;resizeParentMax=0;resizeLast=0;collapsible=0;fontStyle=0;marginBottom=0;swimlaneFillColor=#edf5ff;startSize=28;whiteSpace=wrap;fontSize=16.7;align=left;spacing=0;strokeColor=#6db1ff;strokeOpacity=100;fillOpacity=100;rounded=1;absoluteArcSize=1;arcSize=9;fillColor=#edf5ff;strokeWidth=1.5;" parent="1" vertex="1">
                    <mxGeometry x="-1425" y="-645" width="270" height="147.5" as="geometry"/>
                </mxCell>
                <mxCell id="TugAADP1gNIejF-wy_t--6" value="&lt;div style=&quot;display: flex; justify-content: null; text-align: null; align-items: baseline; font-size: 0; line-height: 1.25;margin-top: -2px;&quot;&gt;&lt;span&gt;&lt;span style=&quot;font-size:16.7px;&quot;&gt;# id_role: int&#xa;&lt;/span&gt;&lt;/span&gt;&lt;/div&gt;&lt;div style=&quot;display: flex; justify-content: null; text-align: null; align-items: baseline; font-size: 0; line-height: 1.25;margin-top: -2px;&quot;&gt;&lt;span&gt;&lt;span style=&quot;font-size:16.7px;&quot;&gt;# name: string&lt;/span&gt;&lt;/span&gt;&lt;/div&gt;" style="part=1;html=1;resizeHeight=0;strokeColor=none;fillColor=none;align=left;verticalAlign=middle;spacingLeft=4;spacingRight=4;overflow=hidden;rotatable=0;points=[[0,0.5],[1,0.5]];portConstraint=eastwest;swimlaneFillColor=#edf5ff;strokeOpacity=100;fillOpacity=100;whiteSpace=wrap;fontSize=16.7;" parent="TugAADP1gNIejF-wy_t--5" vertex="1">
                    <mxGeometry y="28" width="270" height="56" as="geometry"/>
                </mxCell>
                <mxCell id="TugAADP1gNIejF-wy_t--7" value="" style="line;strokeWidth=1;fillColor=none;align=left;verticalAlign=middle;spacingTop=-1;spacingLeft=3;spacingRight=3;rotatable=0;labelPosition=right;points=[];portConstraint=eastwest;" parent="TugAADP1gNIejF-wy_t--5" vertex="1">
                    <mxGeometry y="84" width="270" height="8" as="geometry"/>
                </mxCell>
                <mxCell id="TugAADP1gNIejF-wy_t--8" value="" style="part=1;resizeHeight=0;strokeColor=none;fillColor=none;align=left;verticalAlign=middle;spacingLeft=4;spacingRight=4;rotatable=0;points=[[0,0.5],[1,0.5]];portConstraint=eastwest;swimlaneFillColor=#edf5ff;strokeOpacity=100;fillOpacity=100;whiteSpace=wrap;overflow=block;blockSpacing=1;html=1;fontSize=13;" parent="TugAADP1gNIejF-wy_t--5" vertex="1">
                    <mxGeometry y="92" width="270" height="55.5" as="geometry"/>
                </mxCell>
                <mxCell id="TugAADP1gNIejF-wy_t--9" value="admin" style="html=1;overflow=block;blockSpacing=1;swimlane;childLayout=stackLayout;horizontal=1;horizontalStack=0;resizeParent=1;resizeParentMax=0;resizeLast=0;collapsible=0;fontStyle=0;marginBottom=0;swimlaneFillColor=#edf5ff;startSize=28;whiteSpace=wrap;fontSize=16.7;align=left;spacing=0;strokeColor=#6db1ff;strokeOpacity=100;fillOpacity=100;rounded=1;absoluteArcSize=1;arcSize=9;fillColor=#edf5ff;strokeWidth=1.5;" parent="1" vertex="1">
                    <mxGeometry x="-1390" y="-939.62" width="270" height="165.5" as="geometry"/>
                </mxCell>
                <mxCell id="TugAADP1gNIejF-wy_t--10" value="" style="part=1;html=1;resizeHeight=0;strokeColor=none;fillColor=none;align=left;verticalAlign=middle;spacingLeft=4;spacingRight=4;overflow=hidden;rotatable=0;points=[[0,0.5],[1,0.5]];portConstraint=eastwest;swimlaneFillColor=#edf5ff;strokeOpacity=100;fillOpacity=100;whiteSpace=wrap;fontSize=13;" parent="TugAADP1gNIejF-wy_t--9" vertex="1">
                    <mxGeometry y="28" width="270" height="65" as="geometry"/>
                </mxCell>
                <mxCell id="TugAADP1gNIejF-wy_t--11" value="" style="line;strokeWidth=1;fillColor=none;align=left;verticalAlign=middle;spacingTop=-1;spacingLeft=3;spacingRight=3;rotatable=0;labelPosition=right;points=[];portConstraint=eastwest;" parent="TugAADP1gNIejF-wy_t--9" vertex="1">
                    <mxGeometry y="93" width="270" height="8" as="geometry"/>
                </mxCell>
                <mxCell id="TugAADP1gNIejF-wy_t--12" value="&lt;div style=&quot;display: flex; justify-content: null; text-align: null; align-items: baseline; font-size: 0; line-height: 1.25;margin-top: -2px;&quot;&gt;&lt;span&gt;&lt;span style=&quot;font-size:16.7px;&quot;&gt;# validerMedcin()&#xa;&lt;/span&gt;&lt;/span&gt;&lt;/div&gt;&lt;div style=&quot;display: flex; justify-content: null; text-align: null; align-items: baseline; font-size: 0; line-height: 1.25;margin-top: -2px;&quot;&gt;&lt;span&gt;&lt;span style=&quot;font-size:16.7px;&quot;&gt;# supprimerUser()&#xa;&lt;/span&gt;&lt;/span&gt;&lt;/div&gt;&lt;div style=&quot;display: flex; justify-content: null; text-align: null; align-items: baseline; font-size: 0; line-height: 1.25;margin-top: -2px;&quot;&gt;&lt;span&gt;&lt;span style=&quot;font-size:16.7px;&quot;&gt;# voirStats()&lt;/span&gt;&lt;/span&gt;&lt;/div&gt;" style="part=1;html=1;resizeHeight=0;strokeColor=none;fillColor=none;align=left;verticalAlign=middle;spacingLeft=4;spacingRight=4;overflow=hidden;rotatable=0;points=[[0,0.5],[1,0.5]];portConstraint=eastwest;swimlaneFillColor=#edf5ff;strokeOpacity=100;fillOpacity=100;whiteSpace=wrap;fontSize=16.7;" parent="TugAADP1gNIejF-wy_t--9" vertex="1">
                    <mxGeometry y="101" width="270" height="64.5" as="geometry"/>
                </mxCell>
                <mxCell id="TugAADP1gNIejF-wy_t--13" value="Doctor" style="html=1;overflow=block;blockSpacing=1;swimlane;childLayout=stackLayout;horizontal=1;horizontalStack=0;resizeParent=1;resizeParentMax=0;resizeLast=0;collapsible=0;fontStyle=0;marginBottom=0;swimlaneFillColor=#edf5ff;startSize=28;whiteSpace=wrap;fontSize=16.7;align=left;spacing=0;strokeColor=#6db1ff;strokeOpacity=100;fillOpacity=100;rounded=1;absoluteArcSize=1;arcSize=9;fillColor=#edf5ff;strokeWidth=1.5;" parent="1" vertex="1">
                    <mxGeometry x="-435" y="-555" width="270" height="165.5" as="geometry"/>
                </mxCell>
                <mxCell id="TugAADP1gNIejF-wy_t--14" value="" style="part=1;html=1;resizeHeight=0;strokeColor=none;fillColor=none;align=left;verticalAlign=middle;spacingLeft=4;spacingRight=4;overflow=hidden;rotatable=0;points=[[0,0.5],[1,0.5]];portConstraint=eastwest;swimlaneFillColor=#edf5ff;strokeOpacity=100;fillOpacity=100;whiteSpace=wrap;fontSize=13;" parent="TugAADP1gNIejF-wy_t--13" vertex="1">
                    <mxGeometry y="28" width="270" height="65" as="geometry"/>
                </mxCell>
                <mxCell id="TugAADP1gNIejF-wy_t--15" value="" style="line;strokeWidth=1;fillColor=none;align=left;verticalAlign=middle;spacingTop=-1;spacingLeft=3;spacingRight=3;rotatable=0;labelPosition=right;points=[];portConstraint=eastwest;" parent="TugAADP1gNIejF-wy_t--13" vertex="1">
                    <mxGeometry y="93" width="270" height="8" as="geometry"/>
                </mxCell>
                <mxCell id="TugAADP1gNIejF-wy_t--16" value="&lt;div style=&quot;display: flex; justify-content: null; text-align: null; align-items: baseline; font-size: 0; line-height: 1.25;margin-top: -2px;&quot;&gt;&lt;span&gt;&lt;span style=&quot;font-size:16.7px;&quot;&gt;# getAllDoctors()&#xa;&lt;/span&gt;&lt;/span&gt;&lt;/div&gt;&lt;div style=&quot;display: flex; justify-content: null; text-align: null; align-items: baseline; font-size: 0; line-height: 1.25;margin-top: -2px;&quot;&gt;&lt;span&gt;&lt;span style=&quot;font-size:16.7px;&quot;&gt;# genererOrdonnance()&#xa;&lt;/span&gt;&lt;/span&gt;&lt;/div&gt;&lt;div style=&quot;display: flex; justify-content: null; text-align: null; align-items: baseline; font-size: 0; line-height: 1.25;margin-top: -2px;&quot;&gt;&lt;span&gt;&lt;span style=&quot;font-size:16.7px;&quot;&gt;# creerCertificatMedical()&lt;/span&gt;&lt;/span&gt;&lt;/div&gt;" style="part=1;html=1;resizeHeight=0;strokeColor=none;fillColor=none;align=left;verticalAlign=middle;spacingLeft=4;spacingRight=4;overflow=hidden;rotatable=0;points=[[0,0.5],[1,0.5]];portConstraint=eastwest;swimlaneFillColor=#edf5ff;strokeOpacity=100;fillOpacity=100;whiteSpace=wrap;fontSize=16.7;" parent="TugAADP1gNIejF-wy_t--13" vertex="1">
                    <mxGeometry y="101" width="270" height="64.5" as="geometry"/>
                </mxCell>
                <mxCell id="TugAADP1gNIejF-wy_t--17" value="rendez-vous" style="html=1;overflow=block;blockSpacing=1;swimlane;childLayout=stackLayout;horizontal=1;horizontalStack=0;resizeParent=1;resizeParentMax=0;resizeLast=0;collapsible=0;fontStyle=0;marginBottom=0;swimlaneFillColor=#e3fae3;startSize=25;whiteSpace=wrap;fontSize=16.7;align=left;spacing=0;strokeColor=#ff80df;strokeOpacity=100;fillOpacity=100;rounded=1;absoluteArcSize=1;arcSize=9;fillColor=#e3fae3;strokeWidth=1.5;" parent="1" vertex="1">
                    <mxGeometry x="-690" y="-290" width="270" height="266.25" as="geometry"/>
                </mxCell>
                <mxCell id="TugAADP1gNIejF-wy_t--18" value="&lt;div style=&quot;display: flex; justify-content: null; text-align: null; align-items: baseline; font-size: 0; line-height: 1.25;margin-top: -2px;&quot;&gt;&lt;span&gt;&lt;span style=&quot;font-size:16.7px;&quot;&gt;# id_rendezVous&#xa;&lt;/span&gt;&lt;/span&gt;&lt;/div&gt;&lt;div style=&quot;display: flex; justify-content: null; text-align: null; align-items: baseline; font-size: 0; line-height: 1.25;margin-top: -2px;&quot;&gt;&lt;span&gt;&lt;span style=&quot;font-size:16.7px;&quot;&gt;# status status&#xa;&lt;/span&gt;&lt;/span&gt;&lt;/div&gt;&lt;div style=&quot;display: flex; justify-content: null; text-align: null; align-items: baseline; font-size: 0; line-height: 1.25;margin-top: -2px;&quot;&gt;&lt;span&gt;&lt;span style=&quot;font-size:16.7px;&quot;&gt;# date datestamp&lt;/span&gt;&lt;/span&gt;&lt;/div&gt;" style="part=1;html=1;resizeHeight=0;strokeColor=none;fillColor=none;align=left;verticalAlign=middle;spacingLeft=4;spacingRight=4;overflow=hidden;rotatable=0;points=[[0,0.5],[1,0.5]];portConstraint=eastwest;swimlaneFillColor=#e3fae3;strokeOpacity=100;fillOpacity=100;whiteSpace=wrap;fontSize=16.7;" parent="TugAADP1gNIejF-wy_t--17" vertex="1">
                    <mxGeometry y="25" width="270" height="112" as="geometry"/>
                </mxCell>
                <mxCell id="TugAADP1gNIejF-wy_t--19" value="" style="line;strokeWidth=1;fillColor=none;align=left;verticalAlign=middle;spacingTop=-1;spacingLeft=3;spacingRight=3;rotatable=0;labelPosition=right;points=[];portConstraint=eastwest;" parent="TugAADP1gNIejF-wy_t--17" vertex="1">
                    <mxGeometry y="137" width="270" height="8" as="geometry"/>
                </mxCell>
                <mxCell id="TugAADP1gNIejF-wy_t--20" value="# prendreRendezVous()&#xa;# reprogammerRendezVous()" style="part=1;resizeHeight=0;strokeColor=none;fillColor=none;align=left;verticalAlign=middle;spacingLeft=4;spacingRight=4;rotatable=0;points=[[0,0.5],[1,0.5]];portConstraint=eastwest;swimlaneFillColor=#e3fae3;strokeOpacity=100;fillOpacity=100;whiteSpace=wrap;overflow=block;blockSpacing=1;html=1;fontSize=13;" parent="TugAADP1gNIejF-wy_t--17" vertex="1">
                    <mxGeometry y="145" width="270" height="121.25" as="geometry"/>
                </mxCell>
                <mxCell id="TugAADP1gNIejF-wy_t--21" value="" style="html=1;jettySize=18;whiteSpace=wrap;overflow=block;blockSpacing=1;fontSize=13;strokeColor=#3a414a;strokeOpacity=100;strokeWidth=0.8;rounded=1;arcSize=12;edgeStyle=orthogonalEdgeStyle;startArrow=none;endArrow=block;endFill=0;endSize=12;exitX=1.003;exitY=0.5;exitPerimeter=0;entryX=-0.003;entryY=0.5;entryPerimeter=0;lucidId=HTJHyUn41iWI;" parent="1" source="TugAADP1gNIejF-wy_t--9" target="TugAADP1gNIejF-wy_t--1" edge="1">
                    <mxGeometry width="100" height="100" relative="1" as="geometry">
                        <Array as="points"/>
                    </mxGeometry>
                </mxCell>
                <mxCell id="TugAADP1gNIejF-wy_t--22" value="&amp;nbsp; Patient" style="html=1;overflow=block;blockSpacing=1;swimlane;childLayout=stackLayout;horizontal=1;horizontalStack=0;resizeParent=1;resizeParentMax=0;resizeLast=0;collapsible=0;fontStyle=0;marginBottom=0;swimlaneFillColor=#edf5ff;startSize=28;whiteSpace=wrap;fontSize=16.7;align=left;spacing=0;strokeColor=#6db1ff;strokeOpacity=100;fillOpacity=100;rounded=1;absoluteArcSize=1;arcSize=9;fillColor=#edf5ff;strokeWidth=1.5;" parent="1" vertex="1">
                    <mxGeometry x="-960" y="-545" width="270" height="165.5" as="geometry"/>
                </mxCell>
                <mxCell id="TugAADP1gNIejF-wy_t--23" value="" style="part=1;html=1;resizeHeight=0;strokeColor=none;fillColor=none;align=left;verticalAlign=middle;spacingLeft=4;spacingRight=4;overflow=hidden;rotatable=0;points=[[0,0.5],[1,0.5]];portConstraint=eastwest;swimlaneFillColor=#edf5ff;strokeOpacity=100;fillOpacity=100;whiteSpace=wrap;fontSize=13;" parent="TugAADP1gNIejF-wy_t--22" vertex="1">
                    <mxGeometry y="28" width="270" height="65" as="geometry"/>
                </mxCell>
                <mxCell id="TugAADP1gNIejF-wy_t--24" value="" style="line;strokeWidth=1;fillColor=none;align=left;verticalAlign=middle;spacingTop=-1;spacingLeft=3;spacingRight=3;rotatable=0;labelPosition=right;points=[];portConstraint=eastwest;" parent="TugAADP1gNIejF-wy_t--22" vertex="1">
                    <mxGeometry y="93" width="270" height="8" as="geometry"/>
                </mxCell>
                <mxCell id="TugAADP1gNIejF-wy_t--25" value="&lt;div style=&quot;display: flex; justify-content: null; text-align: null; align-items: baseline; font-size: 0; line-height: 1.25;margin-top: -2px;&quot;&gt;&lt;span&gt;&lt;span style=&quot;font-size:16.7px;&quot;&gt;# uploadDocument()&#xa;&lt;/span&gt;&lt;/span&gt;&lt;/div&gt;&lt;div style=&quot;display: flex; justify-content: null; text-align: null; align-items: baseline; font-size: 0; line-height: 1.25;margin-top: -2px;&quot;&gt;&lt;span&gt;&lt;span style=&quot;font-size:16.7px;&quot;&gt;# getAllPatients()&lt;/span&gt;&lt;/span&gt;&lt;/div&gt;" style="part=1;html=1;resizeHeight=0;strokeColor=none;fillColor=none;align=left;verticalAlign=middle;spacingLeft=4;spacingRight=4;overflow=hidden;rotatable=0;points=[[0,0.5],[1,0.5]];portConstraint=eastwest;swimlaneFillColor=#edf5ff;strokeOpacity=100;fillOpacity=100;whiteSpace=wrap;fontSize=16.7;" parent="TugAADP1gNIejF-wy_t--22" vertex="1">
                    <mxGeometry y="101" width="270" height="64.5" as="geometry"/>
                </mxCell>
                <mxCell id="TugAADP1gNIejF-wy_t--26" value="" style="html=1;jettySize=18;whiteSpace=wrap;overflow=block;blockSpacing=1;fontSize=13;strokeColor=#3a414a;strokeOpacity=100;strokeWidth=0.8;rounded=1;arcSize=12;edgeStyle=orthogonalEdgeStyle;startArrow=none;endArrow=none;exitX=0.5;exitY=-0.005;exitPerimeter=0;entryX=0.5;entryY=1.003;entryPerimeter=0;lucidId=_eXSfLYud67K;" parent="1" source="TugAADP1gNIejF-wy_t--13" target="TugAADP1gNIejF-wy_t--1" edge="1">
                    <mxGeometry width="100" height="100" relative="1" as="geometry">
                        <Array as="points"/>
                    </mxGeometry>
                </mxCell>
                <mxCell id="TugAADP1gNIejF-wy_t--27" value="" style="html=1;jettySize=18;whiteSpace=wrap;overflow=block;blockSpacing=1;fontSize=13;strokeColor=#3a414a;strokeOpacity=100;strokeWidth=0.8;rounded=1;arcSize=12;edgeStyle=orthogonalEdgeStyle;startArrow=none;endArrow=block;endFill=0;endSize=12;exitX=0.5;exitY=-0.005;exitPerimeter=0;entryX=0.5;entryY=1.003;entryPerimeter=0;lucidId=afXSFmYbIp8u;" parent="1" source="TugAADP1gNIejF-wy_t--22" target="TugAADP1gNIejF-wy_t--1" edge="1">
                    <mxGeometry width="100" height="100" relative="1" as="geometry">
                        <Array as="points"/>
                    </mxGeometry>
                </mxCell>
                <mxCell id="TugAADP1gNIejF-wy_t--28" value="" style="html=1;jettySize=18;whiteSpace=wrap;overflow=block;blockSpacing=1;fontSize=13;strokeColor=#3a414a;strokeOpacity=100;strokeWidth=0.8;rounded=1;arcSize=12;edgeStyle=orthogonalEdgeStyle;startArrow=none;endArrow=none;exitX=0.5;exitY=1.005;exitPerimeter=0;entryX=-0.003;entryY=0.258;entryPerimeter=0;lucidId=Pq_STub4ct.3;" parent="1" source="TugAADP1gNIejF-wy_t--22" target="TugAADP1gNIejF-wy_t--17" edge="1">
                    <mxGeometry width="100" height="100" relative="1" as="geometry">
                        <Array as="points"/>
                    </mxGeometry>
                </mxCell>
                <mxCell id="TugAADP1gNIejF-wy_t--29" value="1..1" style="text;html=1;resizable=0;labelBackgroundColor=default;align=center;verticalAlign=middle;fontSize=13;" parent="TugAADP1gNIejF-wy_t--28" vertex="1">
                    <mxGeometry x="-1" relative="1" as="geometry">
                        <mxPoint as="offset"/>
                    </mxGeometry>
                </mxCell>
                <mxCell id="TugAADP1gNIejF-wy_t--30" value="0..*" style="text;html=1;resizable=0;labelBackgroundColor=default;align=center;verticalAlign=middle;fontSize=13;" parent="TugAADP1gNIejF-wy_t--28" vertex="1">
                    <mxGeometry x="1" relative="1" as="geometry">
                        <mxPoint as="offset"/>
                    </mxGeometry>
                </mxCell>
                <mxCell id="TugAADP1gNIejF-wy_t--31" value="" style="html=1;jettySize=18;whiteSpace=wrap;fontSize=13;strokeColor=#3a414a;strokeOpacity=100;strokeWidth=0.8;rounded=1;arcSize=12;edgeStyle=orthogonalEdgeStyle;startArrow=none;endArrow=none;exitX=0.5;exitY=1.005;exitPerimeter=0;entryX=1.003;entryY=0.258;entryPerimeter=0;lucidId=Xq_SrUokac-f;" parent="1" source="TugAADP1gNIejF-wy_t--13" target="TugAADP1gNIejF-wy_t--17" edge="1">
                    <mxGeometry width="100" height="100" relative="1" as="geometry">
                        <Array as="points"/>
                    </mxGeometry>
                </mxCell>
                <mxCell id="TugAADP1gNIejF-wy_t--32" value="1..1" style="text;html=1;resizable=0;labelBackgroundColor=default;align=center;verticalAlign=middle;fontSize=13;" parent="TugAADP1gNIejF-wy_t--31" vertex="1">
                    <mxGeometry x="-1" relative="1" as="geometry">
                        <mxPoint as="offset"/>
                    </mxGeometry>
                </mxCell>
                <mxCell id="TugAADP1gNIejF-wy_t--33" value="0..*" style="text;html=1;resizable=0;labelBackgroundColor=default;align=center;verticalAlign=middle;fontSize=13;" parent="TugAADP1gNIejF-wy_t--31" vertex="1">
                    <mxGeometry x="1" relative="1" as="geometry">
                        <mxPoint as="offset"/>
                    </mxGeometry>
                </mxCell>
                <mxCell id="TugAADP1gNIejF-wy_t--34" value="dossier medical" style="html=1;overflow=block;blockSpacing=1;swimlane;childLayout=stackLayout;horizontal=1;horizontalStack=0;resizeParent=1;resizeParentMax=0;resizeLast=0;collapsible=0;fontStyle=0;marginBottom=0;swimlaneFillColor=#e3fae3;startSize=25;whiteSpace=wrap;fontSize=16.7;align=left;spacing=0;strokeColor=#ff80df;strokeOpacity=100;fillOpacity=100;rounded=1;absoluteArcSize=1;arcSize=9;fillColor=#e3fae3;strokeWidth=1.5;" parent="1" vertex="1">
                    <mxGeometry x="-900" y="120" width="270" height="246.25" as="geometry"/>
                </mxCell>
                <mxCell id="TugAADP1gNIejF-wy_t--35" value="&lt;div style=&quot;display: flex; justify-content: null; text-align: null; align-items: baseline; font-size: 0; line-height: 1.25;margin-top: -2px;&quot;&gt;&lt;span&gt;&lt;span style=&quot;font-size:16.7px;&quot;&gt;# id_dossierMadical&#xa;&lt;/span&gt;&lt;/span&gt;&lt;/div&gt;&lt;div style=&quot;display: flex; justify-content: null; text-align: null; align-items: baseline; font-size: 0; line-height: 1.25;margin-top: -2px;&quot;&gt;&lt;span&gt;&lt;span style=&quot;font-size:16.7px;&quot;&gt;# details string&#xa;&lt;/span&gt;&lt;/span&gt;&lt;/div&gt;&lt;div style=&quot;display: flex; justify-content: null; text-align: null; align-items: baseline; font-size: 0; line-height: 1.25;margin-top: -2px;&quot;&gt;&lt;span&gt;&lt;span style=&quot;font-size:16.7px;&quot;&gt;# fichier &#xa;&lt;/span&gt;&lt;/span&gt;&lt;/div&gt;&lt;div style=&quot;display: flex; justify-content: null; text-align: null; align-items: baseline; font-size: 0; line-height: 1.25;margin-top: -2px;&quot;&gt;&lt;span&gt;&lt;span style=&quot;font-size:16.7px;&quot;&gt;# date datestamp&lt;/span&gt;&lt;/span&gt;&lt;/div&gt;" style="part=1;html=1;resizeHeight=0;strokeColor=none;fillColor=none;align=left;verticalAlign=middle;spacingLeft=4;spacingRight=4;overflow=hidden;rotatable=0;points=[[0,0.5],[1,0.5]];portConstraint=eastwest;swimlaneFillColor=#e3fae3;strokeOpacity=100;fillOpacity=100;whiteSpace=wrap;fontSize=16.7;" parent="TugAADP1gNIejF-wy_t--34" vertex="1">
                    <mxGeometry y="25" width="270" height="102" as="geometry"/>
                </mxCell>
                <mxCell id="TugAADP1gNIejF-wy_t--36" value="" style="line;strokeWidth=1;fillColor=none;align=left;verticalAlign=middle;spacingTop=-1;spacingLeft=3;spacingRight=3;rotatable=0;labelPosition=right;points=[];portConstraint=eastwest;" parent="TugAADP1gNIejF-wy_t--34" vertex="1">
                    <mxGeometry y="127" width="270" height="8" as="geometry"/>
                </mxCell>
                <mxCell id="TugAADP1gNIejF-wy_t--37" value="# getMedcalFileById()&#xa;# updateMedicalFile()&#xa;# deleteMedicalFile() " style="part=1;resizeHeight=0;strokeColor=none;fillColor=none;align=left;verticalAlign=middle;spacingLeft=4;spacingRight=4;rotatable=0;points=[[0,0.5],[1,0.5]];portConstraint=eastwest;swimlaneFillColor=#e3fae3;strokeOpacity=100;fillOpacity=100;whiteSpace=wrap;overflow=block;blockSpacing=1;html=1;fontSize=13;" parent="TugAADP1gNIejF-wy_t--34" vertex="1">
                    <mxGeometry y="135" width="270" height="111.25" as="geometry"/>
                </mxCell>
                <mxCell id="TugAADP1gNIejF-wy_t--38" value="" style="html=1;jettySize=18;whiteSpace=wrap;fontSize=13;strokeColor=#3a414a;strokeOpacity=100;strokeWidth=0.8;rounded=1;arcSize=12;edgeStyle=orthogonalEdgeStyle;startArrow=none;endArrow=none;exitX=1.003;exitY=0.5;exitPerimeter=0;entryX=1.003;entryY=0.671;entryPerimeter=0;lucidId=3iITOI.bbDBN;" parent="1" source="TugAADP1gNIejF-wy_t--34" target="TugAADP1gNIejF-wy_t--13" edge="1">
                    <mxGeometry width="100" height="100" relative="1" as="geometry">
                        <Array as="points"/>
                    </mxGeometry>
                </mxCell>
                <mxCell id="TugAADP1gNIejF-wy_t--39" value="0..*" style="text;html=1;resizable=0;labelBackgroundColor=default;align=center;verticalAlign=middle;fontSize=13;" parent="TugAADP1gNIejF-wy_t--38" vertex="1">
                    <mxGeometry x="-1" relative="1" as="geometry">
                        <mxPoint x="478.5" as="offset"/>
                    </mxGeometry>
                </mxCell>
                <mxCell id="TugAADP1gNIejF-wy_t--40" value="1..1" style="text;html=1;resizable=0;labelBackgroundColor=default;align=center;verticalAlign=middle;fontSize=13;" parent="TugAADP1gNIejF-wy_t--38" vertex="1">
                    <mxGeometry x="1" relative="1" as="geometry">
                        <mxPoint as="offset"/>
                    </mxGeometry>
                </mxCell>
                <mxCell id="TugAADP1gNIejF-wy_t--41" value="" style="html=1;jettySize=18;whiteSpace=wrap;fontSize=13;strokeColor=#3a414a;strokeOpacity=100;strokeWidth=0.8;rounded=1;arcSize=12;edgeStyle=orthogonalEdgeStyle;startArrow=none;endArrow=none;exitX=-0.003;exitY=0.5;exitPerimeter=0;entryX=-0.003;entryY=0.5;entryPerimeter=0;lucidId=CfITMmD125OB;" parent="1" source="TugAADP1gNIejF-wy_t--34" target="TugAADP1gNIejF-wy_t--22" edge="1">
                    <mxGeometry width="100" height="100" relative="1" as="geometry">
                        <Array as="points"/>
                    </mxGeometry>
                </mxCell>
                <mxCell id="TugAADP1gNIejF-wy_t--42" value="0..*" style="text;html=1;resizable=0;labelBackgroundColor=default;align=center;verticalAlign=middle;fontSize=13;" parent="TugAADP1gNIejF-wy_t--41" vertex="1">
                    <mxGeometry x="-1" relative="1" as="geometry">
                        <mxPoint as="offset"/>
                    </mxGeometry>
                </mxCell>
                <mxCell id="TugAADP1gNIejF-wy_t--43" value="1..1" style="text;html=1;resizable=0;labelBackgroundColor=default;align=center;verticalAlign=middle;fontSize=13;" parent="TugAADP1gNIejF-wy_t--41" vertex="1">
                    <mxGeometry x="1" relative="1" as="geometry">
                        <mxPoint as="offset"/>
                    </mxGeometry>
                </mxCell>
                <mxCell id="TugAADP1gNIejF-wy_t--44" value="spécialité" style="html=1;overflow=block;blockSpacing=1;swimlane;childLayout=stackLayout;horizontal=1;horizontalStack=0;resizeParent=1;resizeParentMax=0;resizeLast=0;collapsible=0;fontStyle=0;marginBottom=0;swimlaneFillColor=#edf5ff;startSize=28;whiteSpace=wrap;fontSize=16.7;align=left;spacing=0;strokeColor=#6db1ff;strokeOpacity=100;fillOpacity=100;rounded=1;absoluteArcSize=1;arcSize=9;fillColor=#edf5ff;strokeWidth=1.5;" parent="1" vertex="1">
                    <mxGeometry x="90" y="-545" width="270" height="147.5" as="geometry"/>
                </mxCell>
                <mxCell id="TugAADP1gNIejF-wy_t--45" value="&lt;div style=&quot;display: flex; justify-content: null; text-align: null; align-items: baseline; font-size: 0; line-height: 1.25;margin-top: -2px;&quot;&gt;&lt;span&gt;&lt;span style=&quot;font-size:16.7px;&quot;&gt;# id_specialite: int&#xa;&lt;/span&gt;&lt;/span&gt;&lt;/div&gt;&lt;div style=&quot;display: flex; justify-content: null; text-align: null; align-items: baseline; font-size: 0; line-height: 1.25;margin-top: -2px;&quot;&gt;&lt;span&gt;&lt;span style=&quot;font-size:16.7px;&quot;&gt;# specialite_name: string&lt;/span&gt;&lt;/span&gt;&lt;/div&gt;" style="part=1;html=1;resizeHeight=0;strokeColor=none;fillColor=none;align=left;verticalAlign=middle;spacingLeft=4;spacingRight=4;overflow=hidden;rotatable=0;points=[[0,0.5],[1,0.5]];portConstraint=eastwest;swimlaneFillColor=#edf5ff;strokeOpacity=100;fillOpacity=100;whiteSpace=wrap;fontSize=16.7;" parent="TugAADP1gNIejF-wy_t--44" vertex="1">
                    <mxGeometry y="28" width="270" height="56" as="geometry"/>
                </mxCell>
                <mxCell id="TugAADP1gNIejF-wy_t--46" value="" style="line;strokeWidth=1;fillColor=none;align=left;verticalAlign=middle;spacingTop=-1;spacingLeft=3;spacingRight=3;rotatable=0;labelPosition=right;points=[];portConstraint=eastwest;" parent="TugAADP1gNIejF-wy_t--44" vertex="1">
                    <mxGeometry y="84" width="270" height="8" as="geometry"/>
                </mxCell>
                <mxCell id="TugAADP1gNIejF-wy_t--47" value="" style="part=1;resizeHeight=0;strokeColor=none;fillColor=none;align=left;verticalAlign=middle;spacingLeft=4;spacingRight=4;rotatable=0;points=[[0,0.5],[1,0.5]];portConstraint=eastwest;swimlaneFillColor=#edf5ff;strokeOpacity=100;fillOpacity=100;whiteSpace=wrap;overflow=block;blockSpacing=1;html=1;fontSize=13;" parent="TugAADP1gNIejF-wy_t--44" vertex="1">
                    <mxGeometry y="92" width="270" height="55.5" as="geometry"/>
                </mxCell>
                <mxCell id="TugAADP1gNIejF-wy_t--48" value="" style="html=1;jettySize=18;whiteSpace=wrap;fontSize=13;strokeColor=#3a414a;strokeOpacity=100;strokeWidth=0.8;rounded=1;arcSize=12;edgeStyle=orthogonalEdgeStyle;startArrow=none;endArrow=none;exitX=-0.003;exitY=0.5;exitPerimeter=0;entryX=1.003;entryY=0.5;entryPerimeter=0;lucidId=2hITLxVwG.Vx;" parent="1" source="TugAADP1gNIejF-wy_t--44" target="TugAADP1gNIejF-wy_t--13" edge="1">
                    <mxGeometry width="100" height="100" relative="1" as="geometry">
                        <Array as="points"/>
                    </mxGeometry>
                </mxCell>
                <mxCell id="TugAADP1gNIejF-wy_t--49" value="ordonnances" style="html=1;overflow=block;blockSpacing=1;swimlane;childLayout=stackLayout;horizontal=1;horizontalStack=0;resizeParent=1;resizeParentMax=0;resizeLast=0;collapsible=0;fontStyle=0;marginBottom=0;swimlaneFillColor=#e3fae3;startSize=25;whiteSpace=wrap;fontSize=16.7;align=left;spacing=0;strokeColor=#ff80df;strokeOpacity=100;fillOpacity=100;rounded=1;absoluteArcSize=1;arcSize=9;fillColor=#e3fae3;strokeWidth=1.5;" parent="1" vertex="1">
                    <mxGeometry x="-460" y="-10" width="270" height="227.25" as="geometry"/>
                </mxCell>
                <mxCell id="TugAADP1gNIejF-wy_t--50" value="&lt;div style=&quot;display: flex; justify-content: null; text-align: null; align-items: baseline; font-size: 0; line-height: 1.25;margin-top: -2px;&quot;&gt;&lt;span&gt;&lt;span style=&quot;font-size:16.7px;&quot;&gt;# id_ordonnance&#xa;&lt;/span&gt;&lt;/span&gt;&lt;/div&gt;&lt;div style=&quot;display: flex; justify-content: null; text-align: null; align-items: baseline; font-size: 0; line-height: 1.25;margin-top: -2px;&quot;&gt;&lt;span&gt;&lt;span style=&quot;font-size:16.7px;&quot;&gt;# medicament string &#xa;&lt;/span&gt;&lt;/span&gt;&lt;/div&gt;&lt;div style=&quot;display: flex; justify-content: null; text-align: null; align-items: baseline; font-size: 0; line-height: 1.25;margin-top: -2px;&quot;&gt;&lt;span&gt;&lt;span style=&quot;font-size:16.7px;&quot;&gt;# date datestamp&lt;/span&gt;&lt;/span&gt;&lt;/div&gt;" style="part=1;html=1;resizeHeight=0;strokeColor=none;fillColor=none;align=left;verticalAlign=middle;spacingLeft=4;spacingRight=4;overflow=hidden;rotatable=0;points=[[0,0.5],[1,0.5]];portConstraint=eastwest;swimlaneFillColor=#e3fae3;strokeOpacity=100;fillOpacity=100;whiteSpace=wrap;fontSize=16.7;" parent="TugAADP1gNIejF-wy_t--49" vertex="1">
                    <mxGeometry y="25" width="270" height="92" as="geometry"/>
                </mxCell>
                <mxCell id="TugAADP1gNIejF-wy_t--51" value="" style="line;strokeWidth=1;fillColor=none;align=left;verticalAlign=middle;spacingTop=-1;spacingLeft=3;spacingRight=3;rotatable=0;labelPosition=right;points=[];portConstraint=eastwest;" parent="TugAADP1gNIejF-wy_t--49" vertex="1">
                    <mxGeometry y="117" width="270" height="8" as="geometry"/>
                </mxCell>
                <mxCell id="TugAADP1gNIejF-wy_t--52" value="# getMedcalFileById()&#xa;# updateMedicalFile()&#xa;# deleteMedicalFile() " style="part=1;resizeHeight=0;strokeColor=none;fillColor=none;align=left;verticalAlign=middle;spacingLeft=4;spacingRight=4;rotatable=0;points=[[0,0.5],[1,0.5]];portConstraint=eastwest;swimlaneFillColor=#e3fae3;strokeOpacity=100;fillOpacity=100;whiteSpace=wrap;overflow=block;blockSpacing=1;html=1;fontSize=13;" parent="TugAADP1gNIejF-wy_t--49" vertex="1">
                    <mxGeometry y="125" width="270" height="102.25" as="geometry"/>
                </mxCell>
                <mxCell id="TugAADP1gNIejF-wy_t--53" value="" style="html=1;jettySize=18;whiteSpace=wrap;fontSize=13;strokeColor=#3a414a;strokeOpacity=100;strokeWidth=0.8;rounded=1;arcSize=12;edgeStyle=orthogonalEdgeStyle;startArrow=none;endArrow=none;exitX=-0.003;exitY=0.5;exitPerimeter=0;entryX=0.111;entryY=1.005;entryPerimeter=0;lucidId=ekITmeSolddD;" parent="1" source="TugAADP1gNIejF-wy_t--49" target="TugAADP1gNIejF-wy_t--22" edge="1">
                    <mxGeometry width="100" height="100" relative="1" as="geometry">
                        <Array as="points"/>
                    </mxGeometry>
                </mxCell>
                <mxCell id="TugAADP1gNIejF-wy_t--54" value="0..*" style="text;html=1;resizable=0;labelBackgroundColor=default;align=center;verticalAlign=middle;fontSize=13;" parent="TugAADP1gNIejF-wy_t--53" vertex="1">
                    <mxGeometry x="-1" relative="1" as="geometry">
                        <mxPoint as="offset"/>
                    </mxGeometry>
                </mxCell>
                <mxCell id="TugAADP1gNIejF-wy_t--55" value="1..1" style="text;html=1;resizable=0;labelBackgroundColor=default;align=center;verticalAlign=middle;fontSize=13;" parent="TugAADP1gNIejF-wy_t--53" vertex="1">
                    <mxGeometry x="1" relative="1" as="geometry">
                        <mxPoint as="offset"/>
                    </mxGeometry>
                </mxCell>
                <mxCell id="TugAADP1gNIejF-wy_t--56" value="" style="html=1;jettySize=18;whiteSpace=wrap;fontSize=13;strokeColor=#3a414a;strokeOpacity=100;strokeWidth=0.8;rounded=1;arcSize=12;edgeStyle=orthogonalEdgeStyle;startArrow=none;endArrow=none;exitX=1.003;exitY=0.5;exitPerimeter=0;entryX=0.945;entryY=1.005;entryPerimeter=0;lucidId=ikITmi29NHlJ;" parent="1" source="TugAADP1gNIejF-wy_t--49" target="TugAADP1gNIejF-wy_t--13" edge="1">
                    <mxGeometry width="100" height="100" relative="1" as="geometry">
                        <Array as="points">
                            <mxPoint x="-180" y="104"/>
                        </Array>
                    </mxGeometry>
                </mxCell>
                <mxCell id="TugAADP1gNIejF-wy_t--57" value="0..*" style="text;html=1;resizable=0;labelBackgroundColor=default;align=center;verticalAlign=middle;fontSize=13;" parent="TugAADP1gNIejF-wy_t--56" vertex="1">
                    <mxGeometry x="-1" relative="1" as="geometry">
                        <mxPoint as="offset"/>
                    </mxGeometry>
                </mxCell>
                <mxCell id="TugAADP1gNIejF-wy_t--58" value="1..1" style="text;html=1;resizable=0;labelBackgroundColor=default;align=center;verticalAlign=middle;fontSize=13;" parent="TugAADP1gNIejF-wy_t--56" vertex="1">
                    <mxGeometry x="1" relative="1" as="geometry">
                        <mxPoint as="offset"/>
                    </mxGeometry>
                </mxCell>
            </root>
        </mxGraphModel>
    </diagram>
</mxfile>